# xmcd
#
# Track frame offsets:
#	150
#	8563
#	42397
#	77839
#	99082
#	118752
#	143266
#	163681
#	167183
#	180316
#	214365
#	239456
#	245838
#	268766
#
# Disc length: 3645 seconds
#
# Revision: 1
# Processed by: cddbd v1.5.1PL0 Copyright (c) Steve Scherf et al.
# Submitted via: audiograbber 1.83.01
#
DISCID=b80e3b0e
DTITLE=Yo La Tengo - 29 September 2000 at La Zona Rosa, Austin TX
DYEAR=1900
DGENRE=
TTITLE0=Talking
TTITLE1=Night Falls on Hoboken PT. 1
TTITLE2=Night Falls on Hoboken Pt. 2
TTITLE3=Now 2000
TTITLE4=Let's Save Tony Orlando's House
TTITLE5=Crying of Lot G
TTITLE6=Tears are in Your Eyes
TTITLE7=Talking
TTITLE8=Stockholm Syndrome
TTITLE9=From a Motel
TTITLE10=From Black to Blue
TTITLE11=Talking
TTITLE12=Cherry Chapstick
TTITLE13=Jad Fair Intro - Circus Strongman Runs for PTA President - You Turn Me
TTITLE13=On
EXTD=
EXTT0=
EXTT1=
EXTT2=
EXTT3=
EXTT4=
EXTT5=
EXTT6=
EXTT7=
EXTT8=
EXTT9=
EXTT10=
EXTT11=
EXTT12=
EXTT13=
PLAYORDER=
